<?xml version="1.0" encoding="UTF-8" standalone="no"?>
<!-- Created with Inkscape (http://www.inkscape.org/) -->

<svg
   xmlns:osb="http://www.openswatchbook.org/uri/2009/osb"
   xmlns:dc="http://purl.org/dc/elements/1.1/"
   xmlns:cc="http://creativecommons.org/ns#"
   xmlns:rdf="http://www.w3.org/1999/02/22-rdf-syntax-ns#"
   xmlns:svg="http://www.w3.org/2000/svg"
   xmlns="http://www.w3.org/2000/svg"
   xmlns:xlink="http://www.w3.org/1999/xlink"
   xmlns:sodipodi="http://sodipodi.sourceforge.net/DTD/sodipodi-0.dtd"
   xmlns:inkscape="http://www.inkscape.org/namespaces/inkscape"
   width="108.3257"
   height="16.208559"
   viewBox="0 0 28.661176 4.2885148"
   version="1.1"
   id="svg8"
   inkscape:version="0.92.2 2405546, 2018-03-11"
   sodipodi:docname="crossmar.svg">
  <defs
     id="defs2">
    <linearGradient
       inkscape:collect="always"
       id="linearGradient6591">
      <stop
         id="stop6589"
         offset="0"
         style="stop-color:#6c5353;stop-opacity:0;" />
      <stop
         id="stop6601"
         offset="0.12588218"
         style="stop-color:#6c5353;stop-opacity:0.24705882;" />
      <stop
         style="stop-color:#6c5353;stop-opacity:0.49803922;"
         offset="0.5"
         id="stop6599" />
      <stop
         id="stop6587"
         offset="1"
         style="stop-color:#0cbdfb;stop-opacity:1" />
    </linearGradient>
    <linearGradient
       inkscape:collect="always"
       id="linearGradient4539"
       osb:paint="gradient">
      <stop
         style="stop-color:#d3bc5f;stop-opacity:1;"
         offset="0"
         id="stop4535" />
      <stop
         style="stop-color:#d3bc5f;stop-opacity:0;"
         offset="1"
         id="stop4537" />
    </linearGradient>
    <linearGradient
       inkscape:collect="always"
       xlink:href="#linearGradient6591"
       id="linearGradient6687"
       gradientUnits="userSpaceOnUse"
       x1="15.853549"
       y1="146.19537"
       x2="47.378807"
       y2="146.38315"
       spreadMethod="pad"
       gradientTransform="scale(3.7795276)" />
    <linearGradient
       inkscape:collect="always"
       xlink:href="#linearGradient6591"
       id="linearGradient6689"
       gradientUnits="userSpaceOnUse"
       x1="15.853549"
       y1="146.19537"
       x2="47.378807"
       y2="146.38315"
       spreadMethod="pad" />
    <linearGradient
       inkscape:collect="always"
       xlink:href="#linearGradient6591"
       id="linearGradient6703"
       gradientUnits="userSpaceOnUse"
       x1="15.853549"
       y1="146.19537"
       x2="47.378807"
       y2="146.38315"
       spreadMethod="pad" />
    <linearGradient
       inkscape:collect="always"
       xlink:href="#linearGradient6591"
       id="linearGradient6708"
       gradientUnits="userSpaceOnUse"
       x1="15.853549"
       y1="146.19537"
       x2="47.378807"
       y2="146.38315"
       spreadMethod="pad" />
  </defs>
  <sodipodi:namedview
     id="base"
     pagecolor="#ffffff"
     bordercolor="#666666"
     borderopacity="1.0"
     inkscape:pageopacity="0.0"
     inkscape:pageshadow="2"
     inkscape:zoom="7.0178344"
     inkscape:cx="36.51577"
     inkscape:cy="9.525344"
     inkscape:document-units="mm"
     inkscape:current-layer="layer1"
     showgrid="false"
     fit-margin-top="0.5"
     fit-margin-left="0.5"
     fit-margin-right="0.5"
     fit-margin-bottom="0.5"
     units="px"
     inkscape:window-width="1916"
     inkscape:window-height="832"
     inkscape:window-x="0"
     inkscape:window-y="41"
     inkscape:window-maximized="0" />
  <metadata
     id="metadata5">
    <rdf:RDF>
      <cc:Work
         rdf:about="">
        <dc:format>image/svg+xml</dc:format>
        <dc:type
           rdf:resource="http://purl.org/dc/dcmitype/StillImage" />
        <dc:title></dc:title>
      </cc:Work>
    </rdf:RDF>
  </metadata>
  <g
     inkscape:label="Layer 1"
     inkscape:groupmode="layer"
     id="layer1"
     transform="translate(-18.686965,-144.03933)">
    <g
       id="g6742">
      <path
         id="path6710"
         transform="scale(0.26458333)"
         d="m 78.976562,545.02344 c -3.66351,0 -7.024015,2.692 -7.693359,6.22851 H 74.9375 c 0.497787,-1.55258 1.937421,-2.99218 4.546875,-2.99218 1.68,0 2.833984,0.89257 2.833984,0.89257 l 1.400391,-2.79882 c 0,0 -1.609685,-1.33008 -4.742188,-1.33008 z m 25.195318,0 c -3.57077,0 -6.596597,2.63357 -7.173833,6.22851 h 3.597653 c 0.38011,-1.66417 1.53591,-3.06054 3.57618,-3.06054 2.0543,0 3.18927,1.39639 3.56054,3.06054 h 3.5957 c -0.56864,-3.59494 -3.55403,-6.22851 -7.15624,-6.22851 z m 14.0332,0 c -2.3275,0 -4.70703,1.71516 -4.70703,4.41015 0,0.64474 0.19565,1.2578 0.54492,1.81836 h 5.36328 c -1.49021,-0.63725 -2.6875,-1.19212 -2.6875,-1.9414 0,-0.78751 0.59485,-1.29493 1.71484,-1.29493 1.4875,0 2.92188,0.99805 2.92188,0.99805 l 1.33008,-2.625 c 0,0 -1.85547,-1.36523 -4.48047,-1.36523 z m 11.41601,0 c -2.32749,0 -4.70703,1.71516 -4.70703,4.41015 0,0.64474 0.19565,1.2578 0.54492,1.81836 h 5.36329 c -1.4902,-0.63725 -2.6875,-1.19212 -2.6875,-1.9414 0,-0.78751 0.59484,-1.29493 1.71484,-1.29493 1.4875,0 2.92187,0.99805 2.92187,0.99805 l 1.33008,-2.625 c 0,0 -1.85546,-1.36523 -4.48047,-1.36523 z m -44.626949,0.26172 v 5.96679 h 3.291015 v -3.34179 h 0.384766 c 1.242501,0 2.730469,0.0883 2.730469,1.89062 0,0.73548 -0.25511,1.17607 -0.632813,1.45117 h 3.808594 c 0.181623,-0.50071 0.289062,-1.05668 0.289062,-1.67968 0,-2.83499 -2.029534,-4.28711 -4.707031,-4.28711 z m 51.589839,0 -0.53515,5.96679 h 3.20508 l 0.008,-0.0859 h 0.0879 l 0.0293,0.0859 h 3 l -2.29493,-5.96679 z m 9.90625,0 -2.29492,5.96679 h 3 l 0.0293,-0.0859 h 0.0879 l 0.008,0.0859 h 3.20508 l -0.53516,-5.96679 z m 10.40039,0 -2.4082,5.96679 h 3.33594 l 0.57617,-1.5039 h 0.0352 l 0.57617,1.5039 h 3.33789 l -2.4082,-5.96679 z m 9.41797,0 v 5.96679 h 3.28907 v -3.34179 h 0.38672 c 1.24249,0 2.72851,0.0883 2.72851,1.89062 0,0.73525 -0.25374,1.17605 -0.63086,1.45117 h 3.80664 c 0.18162,-0.50071 0.28906,-1.05668 0.28906,-1.67968 0,-2.83499 -2.02953,-4.28711 -4.70703,-4.28711 z m -95.033199,8.47265 c 0.651351,3.54077 4.037469,6.22852 7.701171,6.22852 3.132503,0 4.742188,-1.33008 4.742188,-1.33008 l -1.400391,-2.80078 c 0,0 -1.153984,0.89258 -2.833984,0.89258 -2.60424,0 -4.042359,-1.43317 -4.542969,-2.99024 z m 13.71875,0 v 5.96485 h 3.291015 v -5.70508 l 4.410156,5.70508 h 4.181641 l -4.966797,-5.96485 z m 11.998047,0 c 0.537486,3.58946 3.347332,6.22852 7.179692,6.22852 3.72241,0 6.60489,-2.63902 7.1582,-6.22852 h -3.59375 c -0.35976,1.6564 -1.46126,3.04297 -3.56445,3.04297 -2.15916,0 -3.23874,-1.3867 -3.5879,-3.04297 z m 20.542972,0 c 1.12466,0.53143 1.96484,0.99249 1.96484,1.76563 0,1.34751 -1.36453,1.41797 -2.08203,1.41797 -1.61,0 -3.53516,-1.62891 -3.53516,-1.62891 l -1.64453,2.76562 c 0,0 2.04633,1.90821 5.42383,1.90821 2.8175,0 5.44336,-1.20876 5.44336,-4.65625 0,-0.57683 -0.17864,-1.09772 -0.45313,-1.57227 z m 11.41601,0 c 1.12467,0.53143 1.96485,0.99249 1.96485,1.76563 0,1.34751 -1.36454,1.41797 -2.08204,1.41797 -1.60999,0 -3.53515,-1.62891 -3.53515,-1.62891 l -1.64453,2.76562 c 0,0 2.04634,1.90821 5.42382,1.90821 2.8175,0 5.44336,-1.20876 5.44336,-4.65625 0,-0.57683 -0.17864,-1.09772 -0.45312,-1.57227 z m 6.87305,0 -0.53516,5.96485 h 3.29102 l 0.47461,-5.96485 z m 4.42969,0 2.05273,5.87696 h 1.96094 l 2.05273,-5.87696 z m 7.26562,0 0.47461,5.96485 h 3.29102 3.3125 l 1.0664,-2.88672 h 5.4961 l 1.0664,2.88672 h 3.53516 l -2.40625,-5.96485 h -3.38867 l 0.0723,0.18946 h -3.2539 l 0.0723,-0.18946 h -3.38672 l -2.22656,5.51367 -0.49414,-5.51367 z m 18.78906,0 v 5.96485 h 3.28907 v -5.70508 l 4.41015,5.70508 h 4.1836 l -4.96875,-5.96485 z"
         style="font-style:normal;font-variant:normal;font-weight:normal;font-stretch:normal;font-size:medium;line-height:6.61458302px;font-family:'League Spartan';-inkscape-font-specification:'League Spartan';letter-spacing:0px;word-spacing:0px;fill:none;fill-opacity:1;stroke:#ffffff;stroke-width:0.24566929;stroke-linecap:butt;stroke-linejoin:miter;stroke-miterlimit:4;stroke-dasharray:none;stroke-opacity:1;paint-order:normal"
         inkscape:connector-curvature="0" />
      <g
         id="text3715"
         style="font-style:normal;font-weight:normal;font-size:4.63020849px;line-height:6.61458302px;font-family:sans-serif;letter-spacing:0px;word-spacing:0px;fill:url(#linearGradient6703);fill-opacity:1;stroke:none;stroke-width:0.26458332px;stroke-linecap:butt;stroke-linejoin:miter;stroke-opacity:1"
         aria-label="CROSSMAR">
        <path
           inkscape:connector-curvature="0"
           id="path6668"
           d="m 20.895882,144.20412 c -0.969304,0 -1.858438,0.71226 -2.035535,1.64796 h 0.966866 c 0.131706,-0.41079 0.51261,-0.79168 1.203028,-0.79168 0.4445,0 0.749825,0.23616 0.749825,0.23616 l 0.37052,-0.74052 c 0,0 -0.425896,-0.35192 -1.254704,-0.35192 z m 6.666261,0 c -0.944766,0 -1.74535,0.6968 -1.898077,1.64796 h 0.951879 c 0.100571,-0.44031 0.406376,-0.80977 0.946198,-0.80977 0.543533,0 0.843828,0.36946 0.942059,0.80977 h 0.951363 c -0.150453,-0.95116 -0.940337,-1.64796 -1.893422,-1.64796 z m 3.712951,0 c -0.615818,0 -1.245402,0.4538 -1.245402,1.16685 0,0.17059 0.05177,0.3328 0.144177,0.48111 h 1.419034 c -0.394284,-0.16861 -0.711067,-0.31542 -0.711067,-0.51366 0,-0.20836 0.157387,-0.34262 0.453718,-0.34262 0.393567,0 0.77308,0.26407 0.77308,0.26407 l 0.351917,-0.69453 c 0,0 -0.490926,-0.36122 -1.185457,-0.36122 z m 3.020486,0 c -0.615815,0 -1.245402,0.4538 -1.245402,1.16685 0,0.17059 0.05177,0.3328 0.144177,0.48111 h 1.419037 c -0.394282,-0.16861 -0.711068,-0.31542 -0.711068,-0.51366 0,-0.20836 0.157385,-0.34262 0.453718,-0.34262 0.393568,0 0.773078,0.26407 0.773078,0.26407 l 0.351917,-0.69453 c 0,0 -0.490923,-0.36122 -1.185457,-0.36122 z m -11.807547,0.0692 v 1.57871 h 0.870748 v -0.88418 h 0.101802 c 0.328745,0 0.722437,0.0234 0.722437,0.50022 0,0.1946 -0.0675,0.31117 -0.167432,0.38396 h 1.007691 c 0.04805,-0.13248 0.07648,-0.27958 0.07648,-0.44442 0,-0.75009 -0.536981,-1.13429 -1.245402,-1.13429 z m 13.649811,0 -0.141592,1.57871 h 0.848011 l 0.0021,-0.0227 h 0.02325 l 0.0078,0.0227 h 0.79375 l -0.6072,-1.57871 z m 2.621029,0 -0.607198,1.57871 h 0.79375 l 0.0078,-0.0227 h 0.02325 l 0.0021,0.0227 h 0.848011 l -0.141594,-1.57871 z m 2.75177,0 -0.63717,1.57871 h 0.882634 l 0.152445,-0.39791 h 0.0093 l 0.152445,0.39791 h 0.88315 l -0.63717,-1.57871 z m 2.491838,0 v 1.57871 h 0.870233 v -0.88418 h 0.102319 c 0.328742,0 0.721919,0.0234 0.721919,0.50022 0,0.19454 -0.06714,0.31117 -0.166915,0.38396 h 1.007173 c 0.04805,-0.13248 0.07648,-0.27958 0.07648,-0.44442 0,-0.75009 -0.536979,-1.13429 -1.245401,-1.13429 z m -25.144201,2.2412 c 0.172109,0.93708 1.068075,1.64848 2.037602,1.64848 0.828808,0 1.254704,-0.35192 1.254704,-0.35192 l -0.37052,-0.74104 c 0,0 -0.305325,0.23617 -0.749825,0.23617 -0.68938,0 -1.070242,-0.37948 -1.202511,-0.79169 z m 3.629753,0 v 1.57872 h 0.870748 v -1.50947 l 1.166853,1.50947 h 1.106393 l -1.314649,-1.57872 z m 3.174483,0 c 0.142021,0.94997 0.885471,1.64848 1.899627,1.64848 0.985062,0 1.747737,-0.6985 1.89394,-1.64848 h -0.950846 c -0.09507,0.43848 -0.386416,0.80564 -0.943094,0.80564 -0.571537,0 -0.857568,-0.36715 -0.949815,-0.80564 z m 5.434294,0 c 0.29814,0.14084 0.520898,0.26286 0.520898,0.46767 0,0.35653 -0.361032,0.37518 -0.55087,0.37518 -0.42598,0 -0.935345,-0.43099 -0.935345,-0.43099 l -0.435115,0.73174 c 0,0 0.541425,0.50488 1.435055,0.50488 0.745463,0 1.440222,-0.31982 1.440222,-1.23196 0,-0.15278 -0.04713,-0.29086 -0.11989,-0.41652 z m 3.020488,0 c 0.298141,0.14084 0.520899,0.26286 0.520899,0.46767 0,0.35653 -0.361035,0.37518 -0.550874,0.37518 -0.425976,0 -0.935341,-0.43099 -0.935341,-0.43099 l -0.435116,0.73174 c 0,0 0.541428,0.50488 1.435053,0.50488 0.745463,0 1.440222,-0.31982 1.440222,-1.23196 0,-0.15278 -0.04713,-0.29086 -0.119888,-0.41652 z m 1.819526,0 -0.141594,1.57872 h 0.870749 l 0.125574,-1.57872 z m 1.172023,0 0.543118,1.55546 h 0.518832 l 0.543118,-1.55546 z m 1.922361,0 0.125574,1.57872 h 0.870749 0.876433 l 0.282151,-0.76378 h 1.454177 l 0.282151,0.76378 h 0.935345 l -0.63717,-1.57872 H 42.32403 l 0.01964,0.0506 h -0.86093 l 0.01964,-0.0506 h -0.896588 l -0.589111,1.45934 -0.130741,-1.45934 z m 4.971273,0 v 1.57872 h 0.870233 v -1.50947 l 1.166852,1.50947 h 1.106911 l -1.315167,-1.57867 z"
           style="font-style:normal;font-variant:normal;font-weight:normal;font-stretch:normal;font-family:'League Spartan';-inkscape-font-specification:'League Spartan';fill:url(#linearGradient6708);fill-opacity:1;stroke-width:0.26458332px" />
      </g>
    </g>
  </g>
</svg>
